<svg width="1043" height="143" viewBox="0 0 1043 143" fill="none" xmlns="http://www.w3.org/2000/svg">
<rect x="99" y="2" width="54" height="54" rx="13" stroke="url(#paint0_linear_20_2)" stroke-width="3"/>
<rect x="2" y="87" width="54" height="54" rx="13" stroke="url(#paint1_linear_20_2)" stroke-width="3"/>
<rect x="681" y="87" width="54" height="54" rx="13" stroke="url(#paint2_linear_20_2)" stroke-width="3"/>
<rect x="400" y="87" width="54" height="54" rx="13" stroke="url(#paint3_linear_20_2)" stroke-width="3"/>
<rect x="201" y="2" width="54" height="54" rx="13" stroke="url(#paint4_linear_20_2)" stroke-width="3"/>
<rect x="104" y="87" width="54" height="54" rx="13" stroke="url(#paint5_linear_20_2)" stroke-width="3"/>
<rect x="783" y="87" width="54" height="54" rx="13" stroke="url(#paint6_linear_20_2)" stroke-width="3"/>
<rect x="579" y="87" width="54" height="54" rx="13" stroke="url(#paint7_linear_20_2)" stroke-width="3"/>
<rect x="303" y="2" width="54" height="54" rx="13" stroke="url(#paint8_linear_20_2)" stroke-width="3"/>
<rect x="206" y="87" width="54" height="54" rx="13" stroke="url(#paint9_linear_20_2)" stroke-width="3"/>
<rect x="885" y="87" width="54" height="54" rx="13" stroke="url(#paint10_linear_20_2)" stroke-width="3"/>
<rect x="405" y="2" width="54" height="54" rx="13" stroke="url(#paint11_linear_20_2)" stroke-width="3"/>
<rect x="298" y="87" width="54" height="54" rx="13" stroke="url(#paint12_linear_20_2)" stroke-width="3"/>
<rect x="987" y="87" width="54" height="54" rx="13" stroke="url(#paint13_linear_20_2)" stroke-width="3"/>
<rect x="579" y="2" width="54" height="54" rx="13" stroke="url(#paint14_linear_20_2)" stroke-width="3"/>
<rect x="681" y="2" width="54" height="54" rx="13" stroke="url(#paint15_linear_20_2)" stroke-width="3"/>
<rect x="783" y="2" width="54" height="54" rx="13" stroke="url(#paint16_linear_20_2)" stroke-width="3"/>
<rect x="885" y="2" width="54" height="54" rx="13" stroke="url(#paint17_linear_20_2)" stroke-width="3"/>
<defs>
<linearGradient id="paint0_linear_20_2" x1="126" y1="2" x2="126" y2="40.5" gradientUnits="userSpaceOnUse">
<stop stop-color="#898989"/>
<stop offset="1" stop-color="#141414"/>
</linearGradient>
<linearGradient id="paint1_linear_20_2" x1="29" y1="87" x2="29" y2="125.5" gradientUnits="userSpaceOnUse">
<stop stop-color="#898989"/>
<stop offset="1" stop-color="#141414"/>
</linearGradient>
<linearGradient id="paint2_linear_20_2" x1="708" y1="87" x2="708" y2="125.5" gradientUnits="userSpaceOnUse">
<stop stop-color="#898989"/>
<stop offset="1" stop-color="#141414"/>
</linearGradient>
<linearGradient id="paint3_linear_20_2" x1="427" y1="87" x2="427" y2="125.5" gradientUnits="userSpaceOnUse">
<stop stop-color="#898989"/>
<stop offset="1" stop-color="#141414"/>
</linearGradient>
<linearGradient id="paint4_linear_20_2" x1="228" y1="2" x2="228" y2="40.5" gradientUnits="userSpaceOnUse">
<stop stop-color="#898989"/>
<stop offset="1" stop-color="#141414"/>
</linearGradient>
<linearGradient id="paint5_linear_20_2" x1="131" y1="87" x2="131" y2="125.5" gradientUnits="userSpaceOnUse">
<stop stop-color="#898989"/>
<stop offset="1" stop-color="#141414"/>
</linearGradient>
<linearGradient id="paint6_linear_20_2" x1="810" y1="87" x2="810" y2="125.5" gradientUnits="userSpaceOnUse">
<stop stop-color="#898989"/>
<stop offset="1" stop-color="#141414"/>
</linearGradient>
<linearGradient id="paint7_linear_20_2" x1="606" y1="87" x2="606" y2="125.5" gradientUnits="userSpaceOnUse">
<stop stop-color="#898989"/>
<stop offset="1" stop-color="#141414"/>
</linearGradient>
<linearGradient id="paint8_linear_20_2" x1="330" y1="2" x2="330" y2="40.5" gradientUnits="userSpaceOnUse">
<stop stop-color="#898989"/>
<stop offset="1" stop-color="#141414"/>
</linearGradient>
<linearGradient id="paint9_linear_20_2" x1="233" y1="87" x2="233" y2="125.5" gradientUnits="userSpaceOnUse">
<stop stop-color="#898989"/>
<stop offset="1" stop-color="#141414"/>
</linearGradient>
<linearGradient id="paint10_linear_20_2" x1="912" y1="87" x2="912" y2="125.5" gradientUnits="userSpaceOnUse">
<stop stop-color="#898989"/>
<stop offset="1" stop-color="#141414"/>
</linearGradient>
<linearGradient id="paint11_linear_20_2" x1="432" y1="2" x2="432" y2="40.5" gradientUnits="userSpaceOnUse">
<stop stop-color="#898989"/>
<stop offset="1" stop-color="#141414"/>
</linearGradient>
<linearGradient id="paint12_linear_20_2" x1="325" y1="87" x2="325" y2="125.5" gradientUnits="userSpaceOnUse">
<stop stop-color="#898989"/>
<stop offset="1" stop-color="#141414"/>
</linearGradient>
<linearGradient id="paint13_linear_20_2" x1="1014" y1="87" x2="1014" y2="125.5" gradientUnits="userSpaceOnUse">
<stop stop-color="#898989"/>
<stop offset="1" stop-color="#141414"/>
</linearGradient>
<linearGradient id="paint14_linear_20_2" x1="606" y1="2" x2="606" y2="40.5" gradientUnits="userSpaceOnUse">
<stop stop-color="#898989"/>
<stop offset="1" stop-color="#141414"/>
</linearGradient>
<linearGradient id="paint15_linear_20_2" x1="708" y1="2" x2="708" y2="40.5" gradientUnits="userSpaceOnUse">
<stop stop-color="#898989"/>
<stop offset="1" stop-color="#141414"/>
</linearGradient>
<linearGradient id="paint16_linear_20_2" x1="810" y1="2" x2="810" y2="40.5" gradientUnits="userSpaceOnUse">
<stop stop-color="#898989"/>
<stop offset="1" stop-color="#141414"/>
</linearGradient>
<linearGradient id="paint17_linear_20_2" x1="912" y1="2" x2="912" y2="40.5" gradientUnits="userSpaceOnUse">
<stop stop-color="#898989"/>
<stop offset="1" stop-color="#141414"/>
</linearGradient>
</defs>
</svg>
